<svg fill="rgba(241, 241, 241, 0.568)" xmlns="http://www.w3.org/2000/svg" width="21.001" height="20.377" viewBox="0 0 21.001 20.377">
  <g id="Union_8" data-name="Union 8" transform="translate(0 0)">
    <path d="M 14.00130081176758 19.87644577026367 C 13.56562042236328 19.87644577026367 13.14494037628174 19.7523250579834 12.84712028503418 19.53591537475586 L 1.437700390815735 11.23354530334473 L 1.356730461120605 11.17462539672852 L 1.259320378303528 11.15143489837646 C 0.8124303817749023 11.04503536224365 0.5001804232597351 10.6489953994751 0.5000004172325134 10.18833541870117 C 0.5000004172325134 9.727705001831055 0.8122504353523254 9.33188533782959 1.25933039188385 9.225455284118652 L 1.35675036907196 9.202255249023438 L 1.437720417976379 9.143335342407227 L 12.84739017486572 0.8407849669456482 C 13.14518070220947 0.6240649819374084 13.56575012207031 0.4997749626636505 14.00130081176758 0.4997749626636505 C 14.43685054779053 0.4997749626636505 14.85741996765137 0.6240649819374084 15.15517997741699 0.8407649993896484 C 15.40895080566406 1.025375008583069 15.54871082305908 1.255715012550354 15.54880046844482 1.489395022392273 C 15.54889011383057 1.723384976387024 15.40902042388916 1.954185009002686 15.15496063232422 2.139294862747192 L 6.696640491485596 8.294215202331543 L 5.453930377960205 9.198505401611328 L 6.990830421447754 9.198505401611328 L 19.51020050048828 9.198505401611328 C 20.05631065368652 9.198505401611328 20.50060081481934 9.64239501953125 20.50060081481934 10.1880054473877 C 20.50060081481934 10.73411464691162 20.05631065368652 11.17840480804443 19.51020050048828 11.17840480804443 L 6.990830421447754 11.17840480804443 L 5.453930377960205 11.17840480804443 L 6.696640491485596 12.08269500732422 L 15.15521049499512 18.23779487609863 C 15.40895080566406 18.42238426208496 15.54871082305908 18.65272521972656 15.54880046844482 18.88639450073242 C 15.54889011383057 19.12038421630859 15.40902042388916 19.3511848449707 15.15496063232422 19.53629493713379 C 14.8576602935791 19.7523250579834 14.43698024749756 19.87644577026367 14.00130081176758 19.87644577026367 Z" stroke="none"/>
    <path d="M 14.00130081176758 19.37644577026367 C 14.33372020721436 19.37644577026367 14.64727020263672 19.28714561462402 14.860520362854 19.1321849822998 C 14.99952030181885 19.03090476989746 15.04882049560547 18.93658447265625 15.04880046844482 18.8865852355957 C 15.04878044128418 18.83680534362793 14.99962043762207 18.7429141998291 14.86101055145264 18.6420841217041 L 6.402440547943115 12.486985206604 L 3.917030334472656 10.67840480804443 L 6.990830421447754 10.67840480804443 L 19.51020050048828 10.67840480804443 C 19.78061103820801 10.67840480804443 20.00060081481934 10.45841503143311 20.00060081481934 10.1880054473877 C 20.00060081481934 9.918094635009766 19.78061103820801 9.698505401611328 19.51020050048828 9.698505401611328 L 6.990830421447754 9.698505401611328 L 3.917030334472656 9.698505401611328 L 6.402440547943115 7.889925003051758 L 14.860520362854 1.735185027122498 C 14.99952030181885 1.633904933929443 15.04882049560547 1.539584994316101 15.04880046844482 1.489575028419495 C 15.04878044128418 1.439795017242432 14.99962043762207 1.345904946327209 14.86097049713135 1.245044946670532 C 14.64679050445557 1.08917498588562 14.33345031738281 0.9997749924659729 14.00130081176758 0.9997749924659729 C 13.66915035247803 0.9997749924659729 13.35581016540527 1.08917498588562 13.1415901184082 1.245074987411499 L 1.73192036151886 9.547624588012695 L 1.569970369338989 9.665474891662598 L 1.375130414962769 9.711854934692383 C 1.154260396957397 9.764434814453125 1.000000357627869 9.960234642028809 1.000000357627869 10.18813514709473 C 1.000090360641479 10.41635513305664 1.154350399971008 10.61246490478516 1.375120401382446 10.66502475738525 L 1.569960355758667 10.71141529083252 L 1.731900453567505 10.82925510406494 L 13.14105033874512 19.13143539428711 C 13.35533046722412 19.28714561462402 13.66888046264648 19.37644577026367 14.00130081176758 19.37644577026367 M 14.00130081176758 20.37644577026367 C 13.47727012634277 20.37644577026367 12.95324993133545 20.23110580444336 12.55320072174072 19.94040489196777 L 1.143510460853577 11.6378345489502 C 0.4876204133033752 11.48167514801025 0.0002804074028972536 10.8923454284668 4.07409658009783e-07 10.1885347366333 C 4.07409658009783e-07 10.18839454650879 4.07409658009783e-07 10.18825531005859 4.07409658009783e-07 10.18811511993408 L 4.07409658009783e-07 10.18806457519531 L 4.07409658009783e-07 10.1880054473877 C 4.07409658009783e-07 9.484695434570313 0.487470418214798 8.895235061645508 1.143530368804932 8.739045143127441 L 12.55320072174072 0.4364949762821198 C 12.95324993133545 0.1453499794006348 13.47727584838867 -0.0002225259377155453 14.00130081176758 -0.0002225259377155453 C 14.52532577514648 -0.0002225259377155453 15.04935073852539 0.1453499794006348 15.44939994812012 0.4364949762821198 C 16.24860000610352 1.017894983291626 16.24860000610352 1.961104989051819 15.44939994812012 2.543405055999756 L 6.990830421447754 8.698505401611328 L 19.51020050048828 8.698505401611328 C 20.33370018005371 8.698505401611328 21.00060081481934 9.365405082702637 21.00060081481934 10.1880054473877 C 21.00060081481934 11.01150512695313 20.33370018005371 11.67840480804443 19.51020050048828 11.67840480804443 L 6.990830421447754 11.67840480804443 L 15.44939994812012 17.83350563049316 C 16.24860000610352 18.4149055480957 16.24860000610352 19.35810470581055 15.44939994812012 19.94040489196777 C 15.04935073852539 20.23110580444336 14.52533054351807 20.37644577026367 14.00130081176758 20.37644577026367 Z" stroke="none"/>
  </g>
</svg>
