<svg fill="rgb(77, 77, 77)" xmlns="http://www.w3.org/2000/svg" width="21.001" height="20.377" viewBox="0 0 21.001 20.377">
  <g id="Union_8" data-name="Union 8" transform="translate(21.001 20.377) rotate(180)">
    <path d="M 14.00130081176758 19.87712287902832 C 13.56575012207031 19.87712287902832 13.14518070220947 19.75283241271973 12.84742069244385 19.5361328125 L 1.437700390815735 11.23354244232178 L 1.356730461120605 11.1746129989624 L 1.259300351142883 11.15142250061035 C 0.8122404217720032 11.04500293731689 0.5000004172325134 10.64919281005859 0.5000004172325134 10.18890285491943 C 0.5001804232597351 9.727902412414551 0.8124303817749023 9.331852912902832 1.259340405464172 9.225442886352539 L 1.35675036907196 9.202252388000488 L 1.437720417976379 9.143332481384277 L 12.84739017486572 0.8407925963401794 C 13.14518070220947 0.6240625977516174 13.56576061248779 0.4997825622558594 14.00130081176758 0.4997825622558594 C 14.43684005737305 0.4997825622558594 14.85741996765137 0.6240625977516174 15.15517997741699 0.8407725691795349 C 15.4090404510498 1.025452613830566 15.54880046844482 1.255982518196106 15.54880046844482 1.489952564239502 C 15.54880046844482 1.723922610282898 15.4090404510498 1.954452633857727 15.15526008605957 2.13907265663147 L 6.696640491485596 8.294212341308594 L 5.453930377960205 9.198502540588379 L 6.990830421447754 9.198502540588379 L 19.51020050048828 9.198502540588379 C 20.05631065368652 9.198502540588379 20.50060081481934 9.642792701721191 20.50060081481934 10.18890285491943 C 20.50060081481934 10.73451232910156 20.05631065368652 11.1784029006958 19.51020050048828 11.1784029006958 L 6.990830421447754 11.1784029006958 L 5.453930377960205 11.1784029006958 L 6.696640491485596 12.08269214630127 L 15.15521049499512 18.23779296875 C 15.40902042388916 18.42272186279297 15.54889011383057 18.65352249145508 15.54880046844482 18.88751220703125 C 15.54871082305908 19.12118339538574 15.40895080566406 19.35152244567871 15.15526008605957 19.53607177734375 C 14.85741996765137 19.75283241271973 14.43685054779053 19.87712287902832 14.00130081176758 19.87712287902832 Z" stroke="none"/>
    <path d="M 14.00130081176758 19.37712287902832 C 14.33346080780029 19.37712287902832 14.64679050445557 19.28773307800293 14.86112022399902 19.13174247741699 C 14.99962043762207 19.03099250793457 15.04878044128418 18.93710327148438 15.04880046844482 18.8873233795166 C 15.04882049560547 18.83732223510742 14.99952030181885 18.74300193786621 14.86101055145264 18.64208221435547 L 6.402440547943115 12.48698234558105 L 3.917030334472656 10.6784029006958 L 6.990830421447754 10.6784029006958 L 19.51020050048828 10.6784029006958 C 19.78061103820801 10.6784029006958 20.00060081481934 10.45881271362305 20.00060081481934 10.18890285491943 C 20.00060081481934 9.918492317199707 19.78061103820801 9.698502540588379 19.51020050048828 9.698502540588379 L 6.990830421447754 9.698502540588379 L 3.917030334472656 9.698502540588379 L 6.402440547943115 7.889922618865967 L 14.86112022399902 1.734742522239685 C 14.99965000152588 1.633972525596619 15.04880046844482 1.539892554283142 15.04880046844482 1.489952564239502 C 15.04880046844482 1.440012574195862 14.99965000152588 1.345932602882385 14.86096000671387 1.245042562484741 C 14.64679050445557 1.089172601699829 14.33346080780029 0.9997825622558594 14.00130081176758 0.9997825622558594 C 13.66914081573486 0.9997825622558594 13.35581016540527 1.089172601699829 13.14158058166504 1.24508261680603 L 1.731910347938538 9.547622680664063 L 1.569980382919312 9.665462493896484 L 1.375150442123413 9.71185302734375 C 1.154360413551331 9.764422416687012 1.000090360641479 9.960532188415527 1.000000357627869 10.18890285491943 C 1.000000357627869 10.41666221618652 1.154240369796753 10.61244297027588 1.375090360641479 10.66501235961914 L 1.569940447807312 10.71140289306641 L 1.731900453567505 10.82925224304199 L 13.14164066314697 19.13186264038086 C 13.35581016540527 19.28773307800293 13.66914081573486 19.37712287902832 14.00130081176758 19.37712287902832 M 14.00130081176758 20.37712287902832 C 13.47727012634277 20.37712287902832 12.95324993133545 20.23155212402344 12.55320072174072 19.94040298461914 L 1.143510460853577 11.63783264160156 C 0.4874404072761536 11.48165225982666 4.07409658009783e-07 10.89220237731934 4.07409658009783e-07 10.18890285491943 L 4.07409658009783e-07 10.18883228302002 L 4.07409658009783e-07 10.18878269195557 C 4.07409658009783e-07 10.18865299224854 4.07409658009783e-07 10.18851280212402 4.07409658009783e-07 10.18837261199951 C 0.0002804074028972536 9.484562873840332 0.4876503944396973 8.89520263671875 1.143530368804932 8.739042282104492 L 12.55320072174072 0.4365025758743286 C 12.95324993133545 0.1453525722026825 13.47727584838867 -0.000222425238462165 14.00130081176758 -0.000222425238462165 C 14.52532577514648 -0.000222425238462165 15.04935073852539 0.1453525722026825 15.44939994812012 0.4365025758743286 C 16.24860000610352 1.017902612686157 16.24860000610352 1.962002515792847 15.44939994812012 2.543402671813965 L 6.990830421447754 8.698502540588379 L 19.51020050048828 8.698502540588379 C 20.33370018005371 8.698502540588379 21.00060081481934 9.365402221679688 21.00060081481934 10.18890285491943 C 21.00060081481934 11.01150226593018 20.33370018005371 11.6784029006958 19.51020050048828 11.6784029006958 L 6.990830421447754 11.6784029006958 L 15.44939994812012 17.8335018157959 C 16.24860000610352 18.41580200195313 16.24860000610352 19.3590030670166 15.44939994812012 19.94040298461914 C 15.04935073852539 20.23155212402344 14.52533054351807 20.37712287902832 14.00130081176758 20.37712287902832 Z" stroke="none"/>
  </g>
</svg>
